<svg id="wave" style="transform:rotate(0deg); transition: 0.3s" viewBox="0 0 1440 100" version="1.1" xmlns="http://www.w3.org/2000/svg"><defs><linearGradient id="sw-gradient-0" x1="0" x2="0" y1="1" y2="0"><stop stop-color="rgba(55, 108, 251, 1)" offset="0%"/><stop stop-color="rgba(0, 0, 0, 1)" offset="100%"/></linearGradient></defs><path style="transform:translate(0, 0px); opacity:1" fill="url(#sw-gradient-0)" d="M0,60L80,63.3C160,67,320,73,480,68.3C640,63,800,47,960,38.3C1120,30,1280,30,1440,36.7C1600,43,1760,57,1920,66.7C2080,77,2240,83,2400,75C2560,67,2720,43,2880,36.7C3040,30,3200,40,3360,51.7C3520,63,3680,77,3840,78.3C4000,80,4160,70,4320,61.7C4480,53,4640,47,4800,38.3C4960,30,5120,20,5280,13.3C5440,7,5600,3,5760,13.3C5920,23,6080,47,6240,46.7C6400,47,6560,23,6720,16.7C6880,10,7040,20,7200,35C7360,50,7520,70,7680,73.3C7840,77,8000,63,8160,50C8320,37,8480,23,8640,25C8800,27,8960,43,9120,45C9280,47,9440,33,9600,23.3C9760,13,9920,7,10080,11.7C10240,17,10400,33,10560,35C10720,37,10880,23,11040,18.3C11200,13,11360,17,11440,18.3L11520,20L11520,100L11440,100C11360,100,11200,100,11040,100C10880,100,10720,100,10560,100C10400,100,10240,100,10080,100C9920,100,9760,100,9600,100C9440,100,9280,100,9120,100C8960,100,8800,100,8640,100C8480,100,8320,100,8160,100C8000,100,7840,100,7680,100C7520,100,7360,100,7200,100C7040,100,6880,100,6720,100C6560,100,6400,100,6240,100C6080,100,5920,100,5760,100C5600,100,5440,100,5280,100C5120,100,4960,100,4800,100C4640,100,4480,100,4320,100C4160,100,4000,100,3840,100C3680,100,3520,100,3360,100C3200,100,3040,100,2880,100C2720,100,2560,100,2400,100C2240,100,2080,100,1920,100C1760,100,1600,100,1440,100C1280,100,1120,100,960,100C800,100,640,100,480,100C320,100,160,100,80,100L0,100Z"/></svg>