<svg id="Layer_1" enable-background="new 0 0 512.001 512.001" height="512" viewBox="0 0 512.001 512.001" width="512" xmlns="http://www.w3.org/2000/svg"><g><g clip-rule="evenodd" fill-rule="evenodd"><ellipse cx="256.001" cy="249.455" fill="#66e0f7" rx="20" ry="20" transform="matrix(.707 -.707 .707 .707 -101.411 254.084)"/><path d="m236.001 249.455c0-11.046 8.954-20 20-20s20 8.954 20 20-8.954 20-20 20-20-8.954-20-20zm60-60h-80c-11 0-20 9-20 20v24.728 55.272c0 11 9 20 20 20h80c11 0 20-8.999 20-20v-55.272-24.728c-.001-11-9-20-20-20z" fill="#fff"/><path d="m196.001 209.455c0-11 9-20 20-20h80c11 0 20 9 20 20v24.728h29.455c12.3 0 16.863-11.362 22.364-22.364l11.182-22.364h78.272c12.3 0 22.364-10.063 22.364-22.363v-22.364h-447.273v22.364c0 12.3 10.064 22.363 22.364 22.363h78.272l11.182 22.364c5.501 11.002 10.064 22.364 22.363 22.364h29.454v-24.728z" fill="#6d91ac"/><path d="m166.546 234.183c-12.3 0-16.863-11.362-22.363-22.364l-11.182-22.364-36.999 87.972v112.031c0 11 9.001 20 20 20h20v-40.001-82.029z" fill="#a7bdcd"/><path d="m345.456 234.183 30.545 53.245v82.029 40.001h20c10.999 0 20-9 20-20v-112.031l-37-87.972-11.182 22.364c-5.501 11.001-10.064 22.364-22.363 22.364z" fill="#a7bdcd"/><path d="m296.001 349.456h-80v70.991l40-25.494 40 25.494z" fill="#ffc144"/><path d="m296.001 349.456v70.991l-40-25.495-40 25.495v-70.991h-60c-11 0-20 9-20 20v40.001 72.544c0 11 9 20 20 20h200.001c11 0 20-9 20-20v-72.544-40.001c0-11-9-20-20-20z" fill="#c1b0b5"/><path d="m144.183 144.728h223.636v-22.364c0-12.3-10.065-22.363-22.364-22.363h-178.909c-12.298 0-22.363 10.065-22.363 22.363z" fill="#fff"/><g fill="#a7bdcd"><path d="m32.365 144.728h54.625l-.421-1.572-10.659-31.974c-1.945-5.835-5.032-11.182-11.182-11.182h-10-11.182c-6.149 0-11.181 5.032-11.181 11.182z"/><path d="m479.637 144.728h-54.625l.421-1.572 10.658-31.974c1.945-5.834 5.032-11.182 11.181-11.182h10 11.182c6.149 0 11.182 5.032 11.182 11.182v33.546z"/></g></g><g><path d="m502.001 56.454h-89.454c-5.522 0-10 4.477-10 10s4.478 10 10 10h34.803c-.046.389-.076.782-.076 1.183v12.363c-6.689 0-15.705 3.126-20.669 18.02l-8.903 26.708h-39.882v-12.364c0-17.845-14.519-32.363-32.364-32.363h-79.454c0-5.523-4.481-10-10.004-10s-10 4.477-10 10h-79.451c-17.845 0-32.363 14.518-32.363 32.363v12.364h-39.884l-8.903-26.708c-4.964-14.894-13.979-18.02-20.669-18.02v-13.546h34.727c5.522 0 10-4.477 10-10s-4.478-10-10-10h-89.454c-5.522 0-10 4.477-10 10s4.478 10 10 10h34.728v13.546h-1.182c-11.68 0-21.182 9.502-21.182 21.182v33.546 22.364c0 17.845 14.518 32.363 32.363 32.363h63.218l-31.163 74.095c-.517 1.228-.782 2.545-.782 3.877v112.031c0 16.542 13.458 30 30 30h10v62.544c0 16.542 13.458 30 30 30h200.001c16.542 0 29.999-13.458 29.999-30v-62.544h.001 9.999c16.542 0 30-13.458 30-30v-112.031c0-1.332-.266-2.649-.782-3.877l-31.163-74.095h63.218c17.846 0 32.364-14.518 32.364-32.363v-22.364-33.546c0-11.68-9.502-21.182-21.182-21.182h-1.183v-12.364c0-.401-.03-.794-.076-1.183h34.804c5.522 0 10-4.477 10-10s-4.478-9.999-10-9.999zm-458.454 53.546h20.835c.354.429 1.123 1.588 2.041 4.344l6.795 20.383h-30.853v-23.546c0-.629.552-1.181 1.182-1.181zm72.454 289.458c-5.514 0-10-4.486-10-10v-110.014l27.784-66.06 1.453 2.907c.416.831.825 1.665 1.234 2.494 3.471 7.052 7.786 15.817 15.337 20.989l-24.482 42.677c-.869 1.515-1.326 3.23-1.326 4.976v82.029 30.001h-10zm190-110.003c0 5.514-4.486 10-10 10h-80c-5.514 0-10-4.486-10-10v-80c0-5.514 4.486-10 10-10h80c5.514 0 10 4.486 10 10zm-90 30h80c16.542 0 30-13.458 30-30v-45.272h13.663l26.337 45.909v51.084c-3.13-1.11-6.494-1.72-9.999-1.72h-200.001c-3.506 0-6.87.61-10 1.72v-51.084l26.337-45.909h13.663v45.272c0 16.542 13.458 30 30 30zm10 40.001h60v42.758l-24.625-15.695c-3.279-2.09-7.471-2.09-10.75 0l-24.625 15.695zm140 122.545c0 5.514-4.485 10-9.999 10h-200.001c-5.514 0-10-4.486-10-10v-112.545c0-5.514 4.486-10 10-10h50v60.991c0 3.651 1.99 7.012 5.191 8.768 3.2 1.756 7.104 1.628 10.184-.335l34.625-22.069 34.625 22.069c1.636 1.042 3.503 1.567 5.375 1.567 1.652 0 3.309-.409 4.809-1.232 3.201-1.755 5.191-5.117 5.191-8.768v-60.991h50.001c5.514 0 9.999 4.486 9.999 10zm40-92.543c0 5.514-4.486 10-10 10h-9.999-.001v-30.002-82.029c0-1.746-.457-3.461-1.326-4.976l-24.483-42.677c7.551-5.172 11.867-13.937 15.338-20.989.408-.83.817-1.663 1.233-2.494l1.454-2.907 27.784 66.06zm63.636-222.366c0 6.817-5.547 12.363-12.364 12.363h-78.272c-3.788 0-7.25 2.14-8.944 5.528l-11.182 22.364c-.434.868-.862 1.739-1.289 2.606-5.342 10.851-7.712 14.23-12.131 14.23h-19.454v-14.728c0-16.542-13.458-30-30-30h-80c-16.542 0-30 13.458-30 30v14.728h-19.455c-4.419 0-6.789-3.378-12.129-14.229-.427-.867-.855-1.738-1.29-2.606l-11.182-22.364c-1.693-3.388-5.156-5.528-8.944-5.528h-78.273c-6.817 0-12.363-5.546-12.363-12.363v-12.364h168.633c5.522 0 10-4.477 10-10s-4.478-10-10-10h-56.815v-12.364c0-6.817 5.546-12.363 12.363-12.363h178.909c6.817 0 12.364 5.546 12.364 12.363v12.364h-56.821c-5.522 0-10 4.477-10 10s4.478 10 10 10h168.64v12.363zm0-55.91v23.546h-30.853l6.795-20.384c.918-2.756 1.688-3.915 2.041-4.343h20.836c.63-.001 1.181.551 1.181 1.181z"/><path d="m206.504 40.502c13.22-13.221 30.799-20.502 49.497-20.502s36.276 7.281 49.497 20.502c1.953 1.953 4.512 2.929 7.071 2.929s5.118-.976 7.071-2.929c3.905-3.905 3.905-10.237 0-14.143-16.999-16.998-39.599-26.359-63.639-26.359s-46.641 9.361-63.64 26.36c-3.905 3.905-3.905 10.237 0 14.143 3.906 3.905 10.236 3.905 14.143-.001z"/><path d="m220.645 54.644c-3.905 3.905-3.905 10.237 0 14.142 3.906 3.906 10.236 3.906 14.143 0 5.666-5.667 13.2-8.787 21.213-8.787 8.014 0 15.547 3.121 21.213 8.787 1.953 1.953 4.512 2.929 7.071 2.929s5.118-.977 7.071-2.929c3.905-3.905 3.905-10.237 0-14.142-9.443-9.443-21.999-14.644-35.355-14.644-13.355 0-25.911 5.2-35.356 14.644z"/><path d="m256.001 219.455c-16.542 0-30 13.458-30 30s13.458 30 30 30 30-13.458 30-30-13.458-30-30-30zm0 40c-5.514 0-10-4.486-10-10s4.486-10 10-10 10 4.486 10 10-4.487 10-10 10z"/><path d="m276.001 452h-40c-5.522 0-10 4.477-10 10s4.478 10 10 10h40c5.522 0 10-4.477 10-10s-4.478-10-10-10z"/><path d="m256.001 134.728h-.007c-5.522 0-9.996 4.477-9.996 10s4.48 10 10.003 10 10-4.477 10-10-4.478-10-10-10z"/></g></g></svg>