<svg id="Layer_1" enable-background="new 0 0 256 256" height="512" viewBox="0 0 256 256" width="512" xmlns="http://www.w3.org/2000/svg"><path d="m224.69 117.358c5.581 0 10.105 4.524 10.105 10.105v124.537h-20.21v-124.537c0-5.581 4.524-10.105 10.105-10.105z" fill="#f4efed"/><path d="m194.385 252h-162.98c-5.633 0-10.2-4.566-10.2-10.2v-227.6c0-5.633 4.566-10.2 10.2-10.2h162.98c5.633 0 10.2 4.566 10.2 10.2v227.6c0 5.634-4.567 10.2-10.2 10.2z" fill="#526faa"/><path d="m224.69 117.358c-1.422 0-2.773.296-4 .826 3.59 1.55 6.105 5.119 6.105 9.279v124.537h8v-124.537c0-5.581-4.524-10.105-10.105-10.105z" fill="#d6d1cf"/><path d="m194.385 4h-10c5.633 0 10.2 4.566 10.2 10.2v227.6c0 5.633-4.567 10.2-10.2 10.2h10c5.633 0 10.2-4.567 10.2-10.2v-227.6c0-5.634-4.567-10.2-10.2-10.2z" fill="#34518c"/><path d="m31.405 252h10c-5.633 0-10.2-4.566-10.2-10.2v-227.6c0-5.633 4.566-10.2 10.2-10.2h-10c-5.633 0-10.2 4.567-10.2 10.2v227.6c0 5.634 4.567 10.2 10.2 10.2z" fill="#708dc8"/><ellipse cx="112.895" cy="231.578" fill="#fcc24c" rx="10.721" ry="10.721" transform="matrix(.257 -.966 .966 .257 -139.913 281.191)"/><path d="m33.345 17.584h159.1v192.47h-159.1z" fill="#f4efed"/><g fill="#690589"><path d="m194.385 254h-162.98c-6.727 0-12.2-5.473-12.2-12.2v-227.6c0-6.727 5.473-12.2 12.2-12.2h162.98c6.727 0 12.2 5.473 12.2 12.2v227.6c0 6.727-5.473 12.2-12.2 12.2zm-162.98-248c-4.521 0-8.2 3.678-8.2 8.2v227.6c0 4.521 3.678 8.2 8.2 8.2h162.98c4.521 0 8.2-3.678 8.2-8.2v-227.6c0-4.521-3.678-8.2-8.2-8.2z"/><path d="m234.795 254h-20.21c-1.104 0-2-.896-2-2v-124.537c0-6.675 5.43-12.105 12.105-12.105s12.105 5.43 12.105 12.105v124.537c0 1.104-.896 2-2 2zm-18.21-4h16.21v-122.537c0-4.469-3.636-8.105-8.105-8.105s-8.105 3.636-8.105 8.105z"/><path d="m224.69 119.358c-1.104 0-2-.896-2-2v-10.306c0-1.104.896-2 2-2s2 .896 2 2v10.306c0 1.104-.896 2-2 2z"/><path d="m234.795 237.581h-20.21c-1.104 0-2-.896-2-2v-94.568c0-1.104.896-2 2-2h20.21c1.104 0 2 .896 2 2v94.568c0 1.104-.896 2-2 2zm-18.21-4h16.21v-90.568h-16.21z"/><path d="m224.69 224.604c-1.104 0-2-.896-2-2v-12.803c0-1.104.896-2 2-2s2 .896 2 2v12.803c0 1.105-.896 2-2 2z"/><path d="m192.445 212.055h-159.1c-1.104 0-2-.896-2-2v-192.471c0-1.104.896-2 2-2h159.1c1.104 0 2 .896 2 2v192.47c0 1.105-.895 2.001-2 2.001zm-157.1-4h155.1v-188.471h-155.1z"/><path d="m41.345 63.559c-1.104 0-2-.896-2-2v-12c0-1.104.896-2 2-2s2 .896 2 2v12c0 1.104-.895 2-2 2z"/><path d="m112.895 244.299c-7.015 0-12.721-5.707-12.721-12.721s5.707-12.721 12.721-12.721 12.721 5.707 12.721 12.721-5.706 12.721-12.721 12.721zm0-21.443c-4.809 0-8.721 3.912-8.721 8.721s3.912 8.721 8.721 8.721 8.721-3.912 8.721-8.721-3.912-8.721-8.721-8.721z"/></g></svg>